<svg width="340" height="200" viewBox="0 0 340 200" fill="none" xmlns="http://www.w3.org/2000/svg">
<path d="M0 0H340V200H0V0Z" fill="#DDC9FF" fill-opacity="0.8"/>
<path d="M108.832 109.928C107.632 109.928 106.52 109.776 105.496 109.472C104.472 109.168 103.584 108.728 102.832 108.152C102.096 107.576 101.52 106.88 101.104 106.064C100.688 105.232 100.48 104.296 100.48 103.256H105.352C105.352 103.656 105.44 104.024 105.616 104.36C105.808 104.696 106.064 104.984 106.384 105.224C106.704 105.464 107.08 105.648 107.512 105.776C107.944 105.904 108.4 105.968 108.88 105.968C109.296 105.968 109.68 105.912 110.032 105.8C110.384 105.688 110.688 105.544 110.944 105.368C111.216 105.176 111.424 104.96 111.568 104.72C111.712 104.48 111.784 104.224 111.784 103.952C111.784 103.728 111.712 103.52 111.568 103.328C111.44 103.136 111.272 102.96 111.064 102.8C110.856 102.624 110.616 102.472 110.344 102.344C110.088 102.2 109.84 102.08 109.6 101.984L104.656 99.944C103.6 99.496 102.76 98.88 102.136 98.096C101.512 97.312 101.2 96.24 101.2 94.88C101.2 93.984 101.392 93.176 101.776 92.456C102.176 91.736 102.712 91.12 103.384 90.608C104.072 90.096 104.88 89.704 105.808 89.432C106.752 89.144 107.776 89 108.88 89C109.872 89 110.808 89.152 111.688 89.456C112.568 89.744 113.336 90.16 113.992 90.704C114.648 91.232 115.16 91.872 115.528 92.624C115.912 93.376 116.104 94.208 116.104 95.12H111.592C111.592 94.816 111.512 94.536 111.352 94.28C111.208 94.008 111.008 93.776 110.752 93.584C110.512 93.376 110.224 93.216 109.888 93.104C109.568 92.992 109.232 92.936 108.88 92.936C108.544 92.936 108.224 92.976 107.92 93.056C107.616 93.136 107.344 93.256 107.104 93.416C106.88 93.56 106.696 93.744 106.552 93.968C106.408 94.176 106.336 94.408 106.336 94.664C106.336 94.904 106.384 95.112 106.48 95.288C106.576 95.464 106.72 95.624 106.912 95.768C107.104 95.912 107.344 96.056 107.632 96.2C107.92 96.328 108.256 96.472 108.64 96.632L113.512 98.648C114.008 98.856 114.456 99.104 114.856 99.392C115.272 99.68 115.632 100.024 115.936 100.424C116.24 100.808 116.472 101.256 116.632 101.768C116.808 102.264 116.896 102.832 116.896 103.472C116.896 104.272 116.704 105.064 116.32 105.848C115.936 106.616 115.392 107.304 114.688 107.912C114 108.52 113.152 109.008 112.144 109.376C111.152 109.744 110.048 109.928 108.832 109.928ZM118.444 115.472V94.472H126.724C127.892 94.472 128.916 94.672 129.796 95.072C130.692 95.472 131.436 96.024 132.028 96.728C132.636 97.416 133.092 98.232 133.396 99.176C133.7 100.104 133.852 101.104 133.852 102.176C133.852 103.232 133.684 104.216 133.348 105.128C133.028 106.04 132.564 106.824 131.956 107.48C131.348 108.152 130.596 108.672 129.7 109.04C128.82 109.424 127.828 109.616 126.724 109.616H123.148V115.472H118.444ZM126.292 95.24C126.244 97.48 125.748 99.16 124.804 100.28C123.86 101.4 122.356 101.984 120.292 102.032C122.356 102.096 123.86 102.72 124.804 103.904C125.748 105.072 126.244 106.728 126.292 108.872C126.324 106.728 126.812 105.064 127.756 103.88C128.7 102.696 130.212 102.072 132.292 102.008C130.212 101.96 128.7 101.384 127.756 100.28C126.812 99.16 126.324 97.48 126.292 95.24ZM140.96 109.928C140.144 109.928 139.376 109.832 138.656 109.64C137.936 109.448 137.312 109.168 136.784 108.8C136.256 108.432 135.832 107.968 135.512 107.408C135.208 106.864 135.056 106.232 135.056 105.512C135.056 104.76 135.168 104.08 135.392 103.472C135.632 102.864 136.008 102.336 136.52 101.888C137.048 101.424 137.728 101.048 138.56 100.76C139.408 100.456 140.448 100.232 141.68 100.088L145.28 99.68V99.344C145.28 98.736 145.04 98.312 144.56 98.072C144.08 97.816 143.44 97.688 142.64 97.688C141.872 97.688 141.28 97.824 140.864 98.096C140.448 98.352 140.24 98.688 140.24 99.104V99.344H135.536V98.864C135.536 98.224 135.704 97.624 136.04 97.064C136.376 96.488 136.848 95.992 137.456 95.576C138.08 95.16 138.824 94.832 139.688 94.592C140.568 94.352 141.552 94.232 142.64 94.232C143.68 94.232 144.648 94.36 145.544 94.616C146.44 94.872 147.216 95.224 147.872 95.672C148.528 96.12 149.04 96.664 149.408 97.304C149.792 97.928 149.984 98.608 149.984 99.344V109.616H145.52V108.752C145.072 109.072 144.432 109.344 143.6 109.568C142.768 109.808 141.888 109.928 140.96 109.928ZM142.4 100.736C142.368 101.296 142.224 101.832 141.968 102.344C141.712 102.84 141.376 103.28 140.96 103.664C140.56 104.032 140.096 104.336 139.568 104.576C139.056 104.8 138.52 104.92 137.96 104.936C138.536 104.968 139.088 105.104 139.616 105.344C140.16 105.584 140.632 105.896 141.032 106.28C141.448 106.664 141.776 107.104 142.016 107.6C142.272 108.112 142.4 108.64 142.4 109.184C142.4 108.64 142.52 108.112 142.76 107.6C143 107.104 143.32 106.664 143.72 106.28C144.136 105.88 144.608 105.56 145.136 105.32C145.68 105.08 146.24 104.944 146.816 104.912C146.256 104.896 145.712 104.776 145.184 104.552C144.672 104.312 144.208 104.008 143.792 103.64C143.392 103.256 143.064 102.816 142.808 102.32C142.552 101.824 142.416 101.296 142.4 100.736ZM166.958 103.136V104.096C166.958 104.848 166.798 105.576 166.478 106.28C166.158 106.968 165.678 107.584 165.038 108.128C164.414 108.672 163.622 109.104 162.662 109.424C161.718 109.76 160.622 109.928 159.374 109.928C158.238 109.928 157.206 109.768 156.278 109.448C155.35 109.144 154.55 108.704 153.878 108.128C153.222 107.568 152.71 106.888 152.342 106.088C151.974 105.272 151.79 104.368 151.79 103.376V100.688C151.79 99.696 151.974 98.8 152.342 98C152.71 97.184 153.222 96.496 153.878 95.936C154.55 95.36 155.35 94.92 156.278 94.616C157.206 94.296 158.238 94.136 159.374 94.136C160.574 94.136 161.638 94.304 162.566 94.64C163.51 94.96 164.302 95.392 164.942 95.936C165.598 96.48 166.094 97.104 166.43 97.808C166.782 98.512 166.958 99.232 166.958 99.968V100.688H162.254V100.208C162.254 99.904 162.182 99.616 162.038 99.344C161.91 99.056 161.718 98.8 161.462 98.576C161.222 98.352 160.926 98.176 160.574 98.048C160.222 97.904 159.822 97.832 159.374 97.832C158.926 97.832 158.526 97.912 158.174 98.072C157.822 98.232 157.518 98.456 157.262 98.744C157.022 99.016 156.83 99.344 156.686 99.728C156.558 100.096 156.494 100.496 156.494 100.928V103.136C156.494 103.568 156.558 103.976 156.686 104.36C156.83 104.728 157.022 105.056 157.262 105.344C157.518 105.616 157.822 105.832 158.174 105.992C158.526 106.152 158.926 106.232 159.374 106.232C159.822 106.232 160.222 106.168 160.574 106.04C160.926 105.896 161.222 105.712 161.462 105.488C161.718 105.264 161.91 105.016 162.038 104.744C162.182 104.456 162.254 104.16 162.254 103.856V103.136H166.958ZM173.112 103.808C173.112 104.24 173.192 104.624 173.352 104.96C173.512 105.28 173.728 105.552 174 105.776C174.288 105.984 174.608 106.144 174.96 106.256C175.328 106.368 175.712 106.424 176.112 106.424C176.976 106.424 177.648 106.328 178.128 106.136C178.624 105.928 178.872 105.632 178.872 105.248V104.792H183.576V105.488C183.576 106.128 183.384 106.72 183 107.264C182.632 107.808 182.112 108.28 181.44 108.68C180.784 109.08 180 109.392 179.088 109.616C178.176 109.84 177.184 109.952 176.112 109.952C175.008 109.952 173.984 109.792 173.04 109.472C172.112 109.168 171.304 108.728 170.616 108.152C169.928 107.592 169.384 106.928 168.984 106.16C168.6 105.376 168.408 104.512 168.408 103.568V100.688C168.408 99.696 168.6 98.8 168.984 98C169.384 97.184 169.928 96.496 170.616 95.936C171.304 95.36 172.112 94.92 173.04 94.616C173.984 94.296 175.008 94.136 176.112 94.136C177.216 94.136 178.232 94.296 179.16 94.616C180.104 94.92 180.92 95.36 181.608 95.936C182.296 96.496 182.832 97.184 183.216 98C183.616 98.8 183.816 99.696 183.816 100.688V103.712H173.112V103.808ZM176.352 95.264C176.32 95.936 176.136 96.504 175.8 96.968C175.48 97.432 175.072 97.808 174.576 98.096C174.095 98.384 173.56 98.6 172.968 98.744C172.392 98.872 171.816 98.944 171.24 98.96C171.832 98.976 172.424 99.064 173.016 99.224C173.624 99.384 174.176 99.624 174.672 99.944C175.168 100.264 175.568 100.664 175.872 101.144C176.192 101.624 176.352 102.2 176.352 102.872C176.352 102.2 176.496 101.624 176.784 101.144C177.072 100.664 177.448 100.264 177.912 99.944C178.392 99.608 178.92 99.36 179.496 99.2C180.088 99.04 180.672 98.952 181.247 98.936C180.688 98.92 180.12 98.848 179.544 98.72C178.984 98.576 178.472 98.36 178.008 98.072C177.544 97.784 177.16 97.416 176.856 96.968C176.552 96.504 176.384 95.936 176.352 95.264ZM185.739 89.312H190.539V106.184C191.275 106.168 192.019 106.136 192.771 106.088C193.539 106.024 194.291 105.936 195.027 105.824C195.763 105.696 196.467 105.544 197.139 105.368C197.811 105.192 198.435 104.968 199.011 104.696V109.616H185.739V89.312ZM202.57 92.888C202.186 92.888 201.834 92.824 201.514 92.696C201.194 92.552 200.922 92.36 200.698 92.12C200.474 91.88 200.298 91.6 200.17 91.28C200.042 90.96 199.978 90.616 199.978 90.248C199.978 89.88 200.042 89.536 200.17 89.216C200.298 88.88 200.474 88.592 200.698 88.352C200.922 88.112 201.194 87.92 201.514 87.776C201.834 87.632 202.186 87.56 202.57 87.56C203.338 87.56 203.962 87.824 204.442 88.352C204.922 88.864 205.162 89.496 205.162 90.248C205.162 90.616 205.098 90.96 204.97 91.28C204.842 91.6 204.658 91.88 204.418 92.12C204.194 92.36 203.922 92.552 203.602 92.696C203.298 92.824 202.954 92.888 202.57 92.888ZM200.218 94.472H204.922V109.616H200.218V94.472ZM214.291 94.664C216.419 94.248 218.051 94.496 219.187 95.408C220.339 96.304 220.915 97.864 220.915 100.088V109.616H216.211V100.568C216.211 98.632 215.331 97.896 213.571 98.36L211.555 98.888V109.616H206.851V94.472H211.555V95.192L214.291 94.664ZM227.445 99.44L232.269 94.472H237.549L231.597 100.664L238.173 109.616H232.893L228.693 103.688L227.445 105.008V109.616H222.741V89.312H227.445V99.44Z" fill="#F5F0FF"/>
</svg>
