<svg width="18" height="18" viewBox="0 0 18 18" fill="none" xmlns="http://www.w3.org/2000/svg">
<path d="M3.6 4.6H14.4V15C14.4 15.7732 13.7732 16.4 13 16.4H5C4.2268 16.4 3.6 15.7732 3.6 15V4.6Z" stroke="#9FA6B2" stroke-width="1.2"/>
<path d="M6.48387 2.5741C6.72102 2.0998 7.20579 1.8002 7.73607 1.8002H10.2639C10.7942 1.8002 11.279 2.0998 11.5161 2.5741L12.5292 4.6002H5.47082L6.48387 2.5741Z" stroke="#9FA6B2" stroke-width="1.2"/>
<rect x="1.5" y="4" width="15" height="1.2" rx="0.6" fill="#9FA6B2"/>
<rect x="9.6001" y="7" width="7" height="1.2" rx="0.6" transform="rotate(90 9.6001 7)" fill="#9FA6B2"/>
<rect x="12.1997" y="7" width="7" height="1.2" rx="0.6" transform="rotate(90 12.1997 7)" fill="#9FA6B2"/>
<rect x="7.2002" y="7" width="7" height="1.2" rx="0.6" transform="rotate(90 7.2002 7)" fill="#9FA6B2"/>
</svg>
